<?xml version="1.0" encoding="UTF-8"?>
<svg id="Capa_1" xmlns="http://www.w3.org/2000/svg" version="1.1" viewBox="0 0 41.9 33.6">
  <!-- Generator: Adobe Illustrator 29.0.0, SVG Export Plug-In . SVG Version: 2.1.0 Build 186)  -->
  <defs>
    <style>
      .st0 {
        fill: none;
        stroke: #2ecc71;
        stroke-linecap: round;
        stroke-linejoin: round;
        stroke-width: 2px;
      }
    </style>
  </defs>
  <path class="st0" d="M21,1h4.9c1.5,0,2.1,1.3,2.1,1.3,0,0,1.2,2,1.7,3.1s1.3,1.1,1.3,1.1h1.2s5.1,0,5.1,0c2,0,3.6,1.6,3.6,3.6v18.9c0,2-1.6,3.6-3.6,3.6,0,0-16.4,0-16.4,0H4.6c-2,0-3.6-1.6-3.6-3.6V10c0-2,1.6-3.6,3.6-3.6h6.3s.8,0,1.3-1.1,1.7-3.1,1.7-3.1c0,0,.6-1.3,2.1-1.3,0,0,4.9,0,4.9,0Z"/>
  <circle class="st0" cx="21" cy="18.8" r="8.2"/>
</svg>